<mxfile host="app.diagrams.net" agent="Mozilla/5.0 (Windows NT 10.0; Win64; x64; rv:136.0) Gecko/20100101 Firefox/136.0" version="26.1.1">
  <diagram name="Page-1" id="42789a77-a242-8287-6e28-9cd8cfd52e62">
    <mxGraphModel dx="1050" dy="557" grid="1" gridSize="10" guides="1" tooltips="1" connect="1" arrows="1" fold="1" page="1" pageScale="1" pageWidth="1100" pageHeight="850" background="none" math="0" shadow="0">
      <root>
        <mxCell id="0" />
        <mxCell id="1" parent="0" />
        <mxCell id="1ea317790d2ca983-12" style="edgeStyle=none;rounded=1;html=1;labelBackgroundColor=none;startArrow=none;startFill=0;startSize=5;endArrow=classicThin;endFill=1;endSize=5;jettySize=auto;orthogonalLoop=1;strokeColor=#FFD966;strokeWidth=1;fontFamily=Verdana;fontSize=12" parent="1" source="1ea317790d2ca983-9" target="1ea317790d2ca983-2" edge="1">
          <mxGeometry relative="1" as="geometry" />
        </mxCell>
        <mxCell id="1ea317790d2ca983-1" value="Home-Page" style="ellipse;whiteSpace=wrap;html=1;rounded=0;shadow=1;comic=0;labelBackgroundColor=none;strokeWidth=1;fontFamily=Verdana;fontSize=12;align=center;" parent="1" vertex="1">
          <mxGeometry x="50" y="195" width="90" height="60" as="geometry" />
        </mxCell>
        <mxCell id="1ea317790d2ca983-2" value="login" style="ellipse;whiteSpace=wrap;html=1;rounded=0;shadow=1;comic=0;labelBackgroundColor=none;strokeWidth=1;fontFamily=Verdana;fontSize=12;align=center;" parent="1" vertex="1">
          <mxGeometry x="380" y="192.5" width="100" height="70" as="geometry" />
        </mxCell>
        <mxCell id="1ea317790d2ca983-15" value="finestra" style="edgeStyle=none;rounded=1;html=1;labelBackgroundColor=none;startArrow=none;startFill=0;startSize=5;endArrow=classicThin;endFill=1;endSize=5;jettySize=auto;orthogonalLoop=1;strokeColor=#B3B3B3;strokeWidth=1;fontFamily=Verdana;fontSize=12" parent="1" source="1ea317790d2ca983-3" target="1ea317790d2ca983-4" edge="1">
          <mxGeometry relative="1" as="geometry" />
        </mxCell>
        <mxCell id="1ea317790d2ca983-3" value="autori" style="ellipse;whiteSpace=wrap;html=1;rounded=0;shadow=1;comic=0;labelBackgroundColor=none;strokeWidth=1;fontFamily=Verdana;fontSize=12;align=center;" parent="1" vertex="1">
          <mxGeometry x="530" y="195" width="90" height="72.5" as="geometry" />
        </mxCell>
        <mxCell id="1ea317790d2ca983-16" value="" style="edgeStyle=none;rounded=1;html=1;labelBackgroundColor=none;startArrow=none;startFill=0;startSize=5;endArrow=classicThin;endFill=1;endSize=5;jettySize=auto;orthogonalLoop=1;strokeColor=#B3B3B3;strokeWidth=1;fontFamily=Verdana;fontSize=12" parent="1" source="1ea317790d2ca983-4" target="1ea317790d2ca983-5" edge="1">
          <mxGeometry relative="1" as="geometry" />
        </mxCell>
        <mxCell id="1ea317790d2ca983-4" value="creatore" style="ellipse;whiteSpace=wrap;html=1;rounded=0;shadow=1;comic=0;labelBackgroundColor=none;strokeWidth=1;fontFamily=Verdana;fontSize=12;align=center;" parent="1" vertex="1">
          <mxGeometry x="537.5" y="310" width="75" height="50" as="geometry" />
        </mxCell>
        <mxCell id="1ea317790d2ca983-5" value="illustratore" style="ellipse;whiteSpace=wrap;html=1;rounded=0;shadow=1;comic=0;labelBackgroundColor=none;strokeWidth=1;fontFamily=Verdana;fontSize=12;align=center;" parent="1" vertex="1">
          <mxGeometry x="520" y="400" width="75" height="50" as="geometry" />
        </mxCell>
        <mxCell id="RoP48pMrBR236Yn9-ivf-1" value="&lt;font face=&quot;Helvetica&quot;&gt;progetto (con link al catalogo)&lt;/font&gt;" style="text;whiteSpace=wrap;html=1;fontFamily=Architects Daughter;fontSource=https%3A%2F%2Ffonts.googleapis.com%2Fcss%3Ffamily%3DArchitects%2BDaughter;" vertex="1" parent="1">
          <mxGeometry x="40" y="280" width="200" height="40" as="geometry" />
        </mxCell>
        <mxCell id="RoP48pMrBR236Yn9-ivf-3" value="" style="edgeStyle=none;rounded=1;html=1;labelBackgroundColor=#000000;startArrow=none;startFill=0;startSize=5;endArrow=classicThin;endFill=1;endSize=5;jettySize=auto;orthogonalLoop=1;strokeColor=#000099;strokeWidth=1;fontFamily=Verdana;fontSize=12;labelBorderColor=default;fontStyle=1" edge="1" parent="1" source="1ea317790d2ca983-1" target="1ea317790d2ca983-9">
          <mxGeometry relative="1" as="geometry">
            <mxPoint x="140" y="225" as="sourcePoint" />
            <mxPoint x="450" y="225" as="targetPoint" />
          </mxGeometry>
        </mxCell>
        <mxCell id="1ea317790d2ca983-9" value="catalogo" style="ellipse;whiteSpace=wrap;html=1;rounded=0;shadow=1;comic=0;labelBackgroundColor=none;strokeWidth=1;fontFamily=Verdana;fontSize=12;align=center;" parent="1" vertex="1">
          <mxGeometry x="240" y="192.5" width="90" height="65" as="geometry" />
        </mxCell>
        <mxCell id="RoP48pMrBR236Yn9-ivf-4" value="" style="curved=1;endArrow=classic;html=1;rounded=0;sketch=1;hachureGap=4;jiggle=2;curveFitting=1;fontFamily=Architects Daughter;fontSource=https%3A%2F%2Ffonts.googleapis.com%2Fcss%3Ffamily%3DArchitects%2BDaughter;entryX=0.25;entryY=0;entryDx=0;entryDy=0;exitX=0;exitY=1;exitDx=0;exitDy=0;" edge="1" parent="1" source="1ea317790d2ca983-1" target="RoP48pMrBR236Yn9-ivf-1">
          <mxGeometry width="50" height="50" relative="1" as="geometry">
            <mxPoint x="110" y="320" as="sourcePoint" />
            <mxPoint x="160" y="270" as="targetPoint" />
            <Array as="points">
              <mxPoint x="120" y="260" />
              <mxPoint x="110" y="260" />
              <mxPoint x="70" y="260" />
              <mxPoint x="110" y="270" />
            </Array>
          </mxGeometry>
        </mxCell>
        <mxCell id="RoP48pMrBR236Yn9-ivf-13" style="edgeStyle=orthogonalEdgeStyle;rounded=0;sketch=1;hachureGap=4;jiggle=2;curveFitting=1;orthogonalLoop=1;jettySize=auto;html=1;fontFamily=Architects Daughter;fontSource=https%3A%2F%2Ffonts.googleapis.com%2Fcss%3Ffamily%3DArchitects%2BDaughter;exitX=0.009;exitY=0.666;exitDx=0;exitDy=0;exitPerimeter=0;entryX=-0.034;entryY=0.399;entryDx=0;entryDy=0;entryPerimeter=0;" edge="1" parent="1" source="1ea317790d2ca983-1" target="RoP48pMrBR236Yn9-ivf-18">
          <mxGeometry relative="1" as="geometry">
            <mxPoint x="30" y="369.9981818181818" as="targetPoint" />
            <mxPoint x="50" y="309.98" as="sourcePoint" />
            <Array as="points">
              <mxPoint x="51" y="230" />
              <mxPoint x="20" y="230" />
              <mxPoint x="20" y="370" />
            </Array>
          </mxGeometry>
        </mxCell>
        <mxCell id="RoP48pMrBR236Yn9-ivf-16" style="edgeStyle=orthogonalEdgeStyle;rounded=0;sketch=1;hachureGap=4;jiggle=2;curveFitting=1;orthogonalLoop=1;jettySize=auto;html=1;fontFamily=Architects Daughter;fontSource=https%3A%2F%2Ffonts.googleapis.com%2Fcss%3Ffamily%3DArchitects%2BDaughter;entryX=0.25;entryY=1;entryDx=0;entryDy=0;" edge="1" parent="1">
          <mxGeometry relative="1" as="geometry">
            <mxPoint x="80" y="394.98" as="targetPoint" />
            <mxPoint x="20" y="370" as="sourcePoint" />
            <Array as="points">
              <mxPoint x="20" y="374.98" />
              <mxPoint x="20" y="394.98" />
            </Array>
          </mxGeometry>
        </mxCell>
        <mxCell id="RoP48pMrBR236Yn9-ivf-17" style="edgeStyle=orthogonalEdgeStyle;rounded=0;sketch=1;hachureGap=4;jiggle=2;curveFitting=1;orthogonalLoop=1;jettySize=auto;html=1;fontFamily=Architects Daughter;fontSource=https%3A%2F%2Ffonts.googleapis.com%2Fcss%3Ffamily%3DArchitects%2BDaughter;exitX=0.009;exitY=0.666;exitDx=0;exitDy=0;exitPerimeter=0;" edge="1" parent="1">
          <mxGeometry relative="1" as="geometry">
            <mxPoint x="80" y="410" as="targetPoint" />
            <mxPoint x="61" y="245" as="sourcePoint" />
            <Array as="points">
              <mxPoint x="50" y="245" />
              <mxPoint x="50" y="230" />
              <mxPoint x="20" y="230" />
              <mxPoint x="20" y="410" />
            </Array>
          </mxGeometry>
        </mxCell>
        <mxCell id="RoP48pMrBR236Yn9-ivf-18" value="&lt;font face=&quot;Helvetica&quot;&gt;Footer&lt;/font&gt;" style="text;whiteSpace=wrap;html=1;fontFamily=Architects Daughter;fontSource=https%3A%2F%2Ffonts.googleapis.com%2Fcss%3Ffamily%3DArchitects%2BDaughter;" vertex="1" parent="1">
          <mxGeometry x="40" y="350" width="80" height="50" as="geometry" />
        </mxCell>
        <mxCell id="RoP48pMrBR236Yn9-ivf-19" value="&lt;font face=&quot;Helvetica&quot;&gt;&amp;nbsp;link al web project&lt;/font&gt;" style="text;whiteSpace=wrap;html=1;fontFamily=Architects Daughter;fontSource=https%3A%2F%2Ffonts.googleapis.com%2Fcss%3Ffamily%3DArchitects%2BDaughter;" vertex="1" parent="1">
          <mxGeometry x="80" y="380" width="200" height="10" as="geometry" />
        </mxCell>
        <mxCell id="RoP48pMrBR236Yn9-ivf-21" value="" style="curved=1;endArrow=classic;html=1;rounded=0;sketch=1;hachureGap=4;jiggle=2;curveFitting=1;fontFamily=Architects Daughter;fontSource=https%3A%2F%2Ffonts.googleapis.com%2Fcss%3Ffamily%3DArchitects%2BDaughter;entryX=0.25;entryY=0;entryDx=0;entryDy=0;exitX=0;exitY=1;exitDx=0;exitDy=0;" edge="1" parent="1">
          <mxGeometry width="50" height="50" relative="1" as="geometry">
            <mxPoint x="260" y="255" as="sourcePoint" />
            <mxPoint x="287" y="289" as="targetPoint" />
            <Array as="points">
              <mxPoint x="317" y="269" />
              <mxPoint x="307" y="269" />
              <mxPoint x="267" y="269" />
              <mxPoint x="307" y="279" />
            </Array>
          </mxGeometry>
        </mxCell>
        <mxCell id="RoP48pMrBR236Yn9-ivf-22" value="&lt;div&gt;&lt;font face=&quot;Helvetica&quot;&gt;Raccolta fumetti(edizioni-speciali)&lt;/font&gt;&lt;/div&gt;&lt;div&gt;&lt;font face=&quot;Helvetica&quot;&gt;- barra di ricerca&lt;/font&gt;&lt;/div&gt;" style="text;whiteSpace=wrap;html=1;fontFamily=Architects Daughter;fontSource=https%3A%2F%2Ffonts.googleapis.com%2Fcss%3Ffamily%3DArchitects%2BDaughter;" vertex="1" parent="1">
          <mxGeometry x="210" y="290" width="200" height="40" as="geometry" />
        </mxCell>
        <mxCell id="RoP48pMrBR236Yn9-ivf-23" value="&lt;font face=&quot;Helvetica&quot;&gt;link ai crediti&lt;/font&gt;" style="text;whiteSpace=wrap;html=1;fontFamily=Architects Daughter;fontSource=https%3A%2F%2Ffonts.googleapis.com%2Fcss%3Ffamily%3DArchitects%2BDaughter;" vertex="1" parent="1">
          <mxGeometry x="80" y="400" width="200" height="10" as="geometry" />
        </mxCell>
        <mxCell id="RoP48pMrBR236Yn9-ivf-24" style="edgeStyle=orthogonalEdgeStyle;rounded=0;sketch=1;hachureGap=4;jiggle=2;curveFitting=1;orthogonalLoop=1;jettySize=auto;html=1;fontFamily=Architects Daughter;fontSource=https%3A%2F%2Ffonts.googleapis.com%2Fcss%3Ffamily%3DArchitects%2BDaughter;" edge="1" parent="1">
          <mxGeometry relative="1" as="geometry">
            <mxPoint x="80" y="430" as="targetPoint" />
            <mxPoint x="20" y="270" as="sourcePoint" />
            <Array as="points">
              <mxPoint x="20" y="430" />
              <mxPoint x="80" y="430" />
            </Array>
          </mxGeometry>
        </mxCell>
        <mxCell id="RoP48pMrBR236Yn9-ivf-25" value="&lt;font face=&quot;Helvetica&quot;&gt;link informazioni&lt;/font&gt;" style="text;whiteSpace=wrap;html=1;fontFamily=Architects Daughter;fontSource=https%3A%2F%2Ffonts.googleapis.com%2Fcss%3Ffamily%3DArchitects%2BDaughter;" vertex="1" parent="1">
          <mxGeometry x="85" y="420" width="200" height="10" as="geometry" />
        </mxCell>
        <mxCell id="RoP48pMrBR236Yn9-ivf-30" style="edgeStyle=none;rounded=1;html=1;labelBackgroundColor=none;startArrow=none;startFill=0;startSize=5;endArrow=classicThin;endFill=1;endSize=5;jettySize=auto;orthogonalLoop=1;strokeColor=#FF1725;strokeWidth=1;fontFamily=Verdana;fontSize=12" edge="1" parent="1">
          <mxGeometry relative="1" as="geometry">
            <mxPoint x="480" y="230.75" as="sourcePoint" />
            <mxPoint x="530" y="231.75" as="targetPoint" />
          </mxGeometry>
        </mxCell>
        <mxCell id="RoP48pMrBR236Yn9-ivf-31" value="editore" style="ellipse;whiteSpace=wrap;html=1;rounded=0;shadow=1;comic=0;labelBackgroundColor=none;strokeWidth=1;fontFamily=Verdana;fontSize=12;align=center;" vertex="1" parent="1">
          <mxGeometry x="530" y="490" width="75" height="50" as="geometry" />
        </mxCell>
        <mxCell id="RoP48pMrBR236Yn9-ivf-32" value="" style="edgeStyle=none;rounded=1;html=1;labelBackgroundColor=none;startArrow=none;startFill=0;startSize=5;endArrow=classicThin;endFill=1;endSize=5;jettySize=auto;orthogonalLoop=1;strokeColor=#B3B3B3;strokeWidth=1;fontFamily=Verdana;fontSize=12;entryX=0.404;entryY=-0.026;entryDx=0;entryDy=0;entryPerimeter=0;exitX=0.5;exitY=1;exitDx=0;exitDy=0;" edge="1" parent="1" source="1ea317790d2ca983-5" target="RoP48pMrBR236Yn9-ivf-31">
          <mxGeometry relative="1" as="geometry">
            <mxPoint x="523" y="440" as="sourcePoint" />
            <mxPoint x="515" y="480" as="targetPoint" />
          </mxGeometry>
        </mxCell>
        <mxCell id="RoP48pMrBR236Yn9-ivf-33" style="edgeStyle=orthogonalEdgeStyle;rounded=0;sketch=1;hachureGap=4;jiggle=2;curveFitting=1;orthogonalLoop=1;jettySize=auto;html=1;fontFamily=Architects Daughter;fontSource=https%3A%2F%2Ffonts.googleapis.com%2Fcss%3Ffamily%3DArchitects%2BDaughter;exitX=0.009;exitY=0.666;exitDx=0;exitDy=0;exitPerimeter=0;entryX=0.834;entryY=0.847;entryDx=0;entryDy=0;entryPerimeter=0;" edge="1" parent="1" target="RoP48pMrBR236Yn9-ivf-23">
          <mxGeometry relative="1" as="geometry">
            <mxPoint x="260" y="410" as="targetPoint" />
            <mxPoint x="251" y="245" as="sourcePoint" />
            <Array as="points">
              <mxPoint x="240" y="245" />
              <mxPoint x="240" y="230" />
              <mxPoint x="210" y="230" />
              <mxPoint x="210" y="410" />
              <mxPoint x="240" y="410" />
              <mxPoint x="240" y="409" />
            </Array>
          </mxGeometry>
        </mxCell>
        <mxCell id="RoP48pMrBR236Yn9-ivf-37" value="&lt;font face=&quot;Helvetica&quot;&gt;Footer&lt;/font&gt;" style="text;whiteSpace=wrap;html=1;fontFamily=Architects Daughter;fontSource=https%3A%2F%2Ffonts.googleapis.com%2Fcss%3Ffamily%3DArchitects%2BDaughter;" vertex="1" parent="1">
          <mxGeometry x="230" y="350" width="80" height="50" as="geometry" />
        </mxCell>
        <mxCell id="RoP48pMrBR236Yn9-ivf-39" style="edgeStyle=orthogonalEdgeStyle;rounded=0;sketch=1;hachureGap=4;jiggle=2;curveFitting=1;orthogonalLoop=1;jettySize=auto;html=1;fontFamily=Architects Daughter;fontSource=https%3A%2F%2Ffonts.googleapis.com%2Fcss%3Ffamily%3DArchitects%2BDaughter;exitX=0.009;exitY=0.666;exitDx=0;exitDy=0;exitPerimeter=0;entryX=-0.034;entryY=0.399;entryDx=0;entryDy=0;entryPerimeter=0;" edge="1" parent="1">
          <mxGeometry relative="1" as="geometry">
            <mxPoint x="226" y="370" as="targetPoint" />
            <mxPoint x="240" y="235" as="sourcePoint" />
            <Array as="points">
              <mxPoint x="240" y="230" />
              <mxPoint x="209" y="230" />
              <mxPoint x="209" y="370" />
            </Array>
          </mxGeometry>
        </mxCell>
        <mxCell id="RoP48pMrBR236Yn9-ivf-40" style="edgeStyle=orthogonalEdgeStyle;rounded=0;sketch=1;hachureGap=4;jiggle=2;curveFitting=1;orthogonalLoop=1;jettySize=auto;html=1;fontFamily=Architects Daughter;fontSource=https%3A%2F%2Ffonts.googleapis.com%2Fcss%3Ffamily%3DArchitects%2BDaughter;" edge="1" parent="1">
          <mxGeometry relative="1" as="geometry">
            <mxPoint x="250" y="440" as="targetPoint" />
            <mxPoint x="210" y="280" as="sourcePoint" />
            <Array as="points">
              <mxPoint x="210" y="440" />
            </Array>
          </mxGeometry>
        </mxCell>
        <mxCell id="RoP48pMrBR236Yn9-ivf-42" value="" style="endArrow=classic;html=1;rounded=0;sketch=1;hachureGap=4;jiggle=2;curveFitting=1;fontFamily=Architects Daughter;fontSource=https%3A%2F%2Ffonts.googleapis.com%2Fcss%3Ffamily%3DArchitects%2BDaughter;entryX=0.838;entryY=0.767;entryDx=0;entryDy=0;entryPerimeter=0;" edge="1" parent="1" target="RoP48pMrBR236Yn9-ivf-25">
          <mxGeometry width="50" height="50" relative="1" as="geometry">
            <mxPoint x="210" y="430" as="sourcePoint" />
            <mxPoint x="260" y="380" as="targetPoint" />
          </mxGeometry>
        </mxCell>
        <mxCell id="RoP48pMrBR236Yn9-ivf-43" value="&lt;font face=&quot;Helvetica&quot;&gt;link informazioni&lt;/font&gt;" style="text;whiteSpace=wrap;html=1;fontFamily=Architects Daughter;fontSource=https%3A%2F%2Ffonts.googleapis.com%2Fcss%3Ffamily%3DArchitects%2BDaughter;" vertex="1" parent="1">
          <mxGeometry x="260" y="425" width="200" height="10" as="geometry" />
        </mxCell>
        <mxCell id="RoP48pMrBR236Yn9-ivf-44" value="&lt;font face=&quot;Helvetica&quot;&gt;link ai crediti&lt;/font&gt;" style="text;whiteSpace=wrap;html=1;fontFamily=Architects Daughter;fontSource=https%3A%2F%2Ffonts.googleapis.com%2Fcss%3Ffamily%3DArchitects%2BDaughter;" vertex="1" parent="1">
          <mxGeometry x="450" y="410" width="200" height="10" as="geometry" />
        </mxCell>
        <mxCell id="RoP48pMrBR236Yn9-ivf-45" value="&lt;font face=&quot;Helvetica&quot;&gt;&amp;nbsp;link al web project&lt;/font&gt;" style="text;whiteSpace=wrap;html=1;fontFamily=Architects Daughter;fontSource=https%3A%2F%2Ffonts.googleapis.com%2Fcss%3Ffamily%3DArchitects%2BDaughter;" vertex="1" parent="1">
          <mxGeometry x="240" y="390" width="200" height="10" as="geometry" />
        </mxCell>
        <mxCell id="RoP48pMrBR236Yn9-ivf-46" value="" style="curved=1;endArrow=classic;html=1;rounded=0;sketch=1;hachureGap=4;jiggle=2;curveFitting=1;fontFamily=Architects Daughter;fontSource=https%3A%2F%2Ffonts.googleapis.com%2Fcss%3Ffamily%3DArchitects%2BDaughter;entryX=0.25;entryY=0;entryDx=0;entryDy=0;exitX=0;exitY=1;exitDx=0;exitDy=0;" edge="1" parent="1">
          <mxGeometry width="50" height="50" relative="1" as="geometry">
            <mxPoint x="403" y="257.5" as="sourcePoint" />
            <mxPoint x="430" y="291.5" as="targetPoint" />
            <Array as="points">
              <mxPoint x="460" y="271.5" />
              <mxPoint x="450" y="271.5" />
              <mxPoint x="410" y="271.5" />
              <mxPoint x="450" y="281.5" />
            </Array>
          </mxGeometry>
        </mxCell>
        <mxCell id="RoP48pMrBR236Yn9-ivf-48" value="&lt;font face=&quot;Helvetica&quot;&gt;Footer&lt;/font&gt;" style="text;whiteSpace=wrap;html=1;fontFamily=Architects Daughter;fontSource=https%3A%2F%2Ffonts.googleapis.com%2Fcss%3Ffamily%3DArchitects%2BDaughter;" vertex="1" parent="1">
          <mxGeometry x="421" y="345" width="80" height="50" as="geometry" />
        </mxCell>
        <mxCell id="RoP48pMrBR236Yn9-ivf-49" style="edgeStyle=orthogonalEdgeStyle;rounded=0;sketch=1;hachureGap=4;jiggle=2;curveFitting=1;orthogonalLoop=1;jettySize=auto;html=1;fontFamily=Architects Daughter;fontSource=https%3A%2F%2Ffonts.googleapis.com%2Fcss%3Ffamily%3DArchitects%2BDaughter;entryX=-0.034;entryY=0.399;entryDx=0;entryDy=0;entryPerimeter=0;" edge="1" parent="1" source="1ea317790d2ca983-2">
          <mxGeometry relative="1" as="geometry">
            <mxPoint x="417" y="365" as="targetPoint" />
            <mxPoint x="431" y="230" as="sourcePoint" />
            <Array as="points">
              <mxPoint x="400" y="365" />
            </Array>
          </mxGeometry>
        </mxCell>
        <mxCell id="RoP48pMrBR236Yn9-ivf-50" style="edgeStyle=orthogonalEdgeStyle;rounded=0;sketch=1;hachureGap=4;jiggle=2;curveFitting=1;orthogonalLoop=1;jettySize=auto;html=1;fontFamily=Architects Daughter;fontSource=https%3A%2F%2Ffonts.googleapis.com%2Fcss%3Ffamily%3DArchitects%2BDaughter;" edge="1" parent="1">
          <mxGeometry relative="1" as="geometry">
            <mxPoint x="441" y="435" as="targetPoint" />
            <mxPoint x="401" y="275" as="sourcePoint" />
            <Array as="points">
              <mxPoint x="401" y="435" />
            </Array>
          </mxGeometry>
        </mxCell>
        <mxCell id="RoP48pMrBR236Yn9-ivf-51" value="" style="endArrow=classic;html=1;rounded=0;sketch=1;hachureGap=4;jiggle=2;curveFitting=1;fontFamily=Architects Daughter;fontSource=https%3A%2F%2Ffonts.googleapis.com%2Fcss%3Ffamily%3DArchitects%2BDaughter;entryX=0.838;entryY=0.767;entryDx=0;entryDy=0;entryPerimeter=0;" edge="1" parent="1">
          <mxGeometry width="50" height="50" relative="1" as="geometry">
            <mxPoint x="401" y="425" as="sourcePoint" />
            <mxPoint x="444" y="423" as="targetPoint" />
          </mxGeometry>
        </mxCell>
        <mxCell id="RoP48pMrBR236Yn9-ivf-52" value="&lt;font face=&quot;Helvetica&quot;&gt;&amp;nbsp;link al web project&lt;/font&gt;" style="text;whiteSpace=wrap;html=1;fontFamily=Architects Daughter;fontSource=https%3A%2F%2Ffonts.googleapis.com%2Fcss%3Ffamily%3DArchitects%2BDaughter;" vertex="1" parent="1">
          <mxGeometry x="250" y="400" width="200" height="10" as="geometry" />
        </mxCell>
        <mxCell id="RoP48pMrBR236Yn9-ivf-53" value="&lt;font face=&quot;Helvetica&quot;&gt;link informazioni&lt;/font&gt;" style="text;whiteSpace=wrap;html=1;fontFamily=Architects Daughter;fontSource=https%3A%2F%2Ffonts.googleapis.com%2Fcss%3Ffamily%3DArchitects%2BDaughter;" vertex="1" parent="1">
          <mxGeometry x="440" y="425" width="80" height="10" as="geometry" />
        </mxCell>
        <mxCell id="RoP48pMrBR236Yn9-ivf-54" value="&lt;font face=&quot;Helvetica&quot;&gt;&amp;nbsp;link al web project&lt;/font&gt;" style="text;whiteSpace=wrap;html=1;fontFamily=Architects Daughter;fontSource=https%3A%2F%2Ffonts.googleapis.com%2Fcss%3Ffamily%3DArchitects%2BDaughter;" vertex="1" parent="1">
          <mxGeometry x="420" y="395" width="200" height="10" as="geometry" />
        </mxCell>
        <mxCell id="RoP48pMrBR236Yn9-ivf-55" value="" style="endArrow=classic;html=1;rounded=0;sketch=1;hachureGap=4;jiggle=2;curveFitting=1;fontFamily=Architects Daughter;fontSource=https%3A%2F%2Ffonts.googleapis.com%2Fcss%3Ffamily%3DArchitects%2BDaughter;entryX=0.87;entryY=1.281;entryDx=0;entryDy=0;entryPerimeter=0;" edge="1" parent="1" target="RoP48pMrBR236Yn9-ivf-52">
          <mxGeometry width="50" height="50" relative="1" as="geometry">
            <mxPoint x="400" y="410" as="sourcePoint" />
            <mxPoint x="450" y="360" as="targetPoint" />
          </mxGeometry>
        </mxCell>
        <mxCell id="RoP48pMrBR236Yn9-ivf-63" value="&lt;font face=&quot;Helvetica&quot;&gt;Footer&lt;/font&gt;" style="text;whiteSpace=wrap;html=1;fontFamily=Architects Daughter;fontSource=https%3A%2F%2Ffonts.googleapis.com%2Fcss%3Ffamily%3DArchitects%2BDaughter;" vertex="1" parent="1">
          <mxGeometry x="641" y="330" width="80" height="50" as="geometry" />
        </mxCell>
        <mxCell id="RoP48pMrBR236Yn9-ivf-64" style="edgeStyle=orthogonalEdgeStyle;rounded=0;sketch=1;hachureGap=4;jiggle=2;curveFitting=1;orthogonalLoop=1;jettySize=auto;html=1;fontFamily=Architects Daughter;fontSource=https%3A%2F%2Ffonts.googleapis.com%2Fcss%3Ffamily%3DArchitects%2BDaughter;entryX=-0.034;entryY=0.399;entryDx=0;entryDy=0;entryPerimeter=0;" edge="1" parent="1">
          <mxGeometry relative="1" as="geometry">
            <mxPoint x="637" y="350" as="targetPoint" />
            <mxPoint x="620" y="241" as="sourcePoint" />
            <Array as="points">
              <mxPoint x="620" y="350" />
            </Array>
          </mxGeometry>
        </mxCell>
        <mxCell id="RoP48pMrBR236Yn9-ivf-65" style="edgeStyle=orthogonalEdgeStyle;rounded=0;sketch=1;hachureGap=4;jiggle=2;curveFitting=1;orthogonalLoop=1;jettySize=auto;html=1;fontFamily=Architects Daughter;fontSource=https%3A%2F%2Ffonts.googleapis.com%2Fcss%3Ffamily%3DArchitects%2BDaughter;" edge="1" parent="1">
          <mxGeometry relative="1" as="geometry">
            <mxPoint x="661" y="420" as="targetPoint" />
            <mxPoint x="621" y="260" as="sourcePoint" />
            <Array as="points">
              <mxPoint x="621" y="420" />
            </Array>
          </mxGeometry>
        </mxCell>
        <mxCell id="RoP48pMrBR236Yn9-ivf-66" value="" style="endArrow=classic;html=1;rounded=0;sketch=1;hachureGap=4;jiggle=2;curveFitting=1;fontFamily=Architects Daughter;fontSource=https%3A%2F%2Ffonts.googleapis.com%2Fcss%3Ffamily%3DArchitects%2BDaughter;entryX=0.838;entryY=0.767;entryDx=0;entryDy=0;entryPerimeter=0;" edge="1" parent="1">
          <mxGeometry width="50" height="50" relative="1" as="geometry">
            <mxPoint x="621" y="410" as="sourcePoint" />
            <mxPoint x="664" y="408" as="targetPoint" />
          </mxGeometry>
        </mxCell>
        <mxCell id="RoP48pMrBR236Yn9-ivf-67" value="" style="endArrow=classic;html=1;rounded=0;sketch=1;hachureGap=4;jiggle=2;curveFitting=1;fontFamily=Architects Daughter;fontSource=https%3A%2F%2Ffonts.googleapis.com%2Fcss%3Ffamily%3DArchitects%2BDaughter;entryX=0.87;entryY=1.281;entryDx=0;entryDy=0;entryPerimeter=0;" edge="1" parent="1">
          <mxGeometry width="50" height="50" relative="1" as="geometry">
            <mxPoint x="620" y="395" as="sourcePoint" />
            <mxPoint x="644" y="398" as="targetPoint" />
          </mxGeometry>
        </mxCell>
        <mxCell id="RoP48pMrBR236Yn9-ivf-68" value="&lt;font face=&quot;Helvetica&quot;&gt;&amp;nbsp;link al web project&lt;/font&gt;" style="text;whiteSpace=wrap;html=1;fontFamily=Architects Daughter;fontSource=https%3A%2F%2Ffonts.googleapis.com%2Fcss%3Ffamily%3DArchitects%2BDaughter;" vertex="1" parent="1">
          <mxGeometry x="641" y="380" width="200" height="10" as="geometry" />
        </mxCell>
        <mxCell id="RoP48pMrBR236Yn9-ivf-69" value="&lt;font face=&quot;Helvetica&quot;&gt;link informazioni&lt;/font&gt;" style="text;whiteSpace=wrap;html=1;fontFamily=Architects Daughter;fontSource=https%3A%2F%2Ffonts.googleapis.com%2Fcss%3Ffamily%3DArchitects%2BDaughter;" vertex="1" parent="1">
          <mxGeometry x="660" y="410" width="80" height="10" as="geometry" />
        </mxCell>
        <mxCell id="RoP48pMrBR236Yn9-ivf-70" value="&lt;font face=&quot;Helvetica&quot;&gt;link ai crediti&lt;/font&gt;" style="text;whiteSpace=wrap;html=1;fontFamily=Architects Daughter;fontSource=https%3A%2F%2Ffonts.googleapis.com%2Fcss%3Ffamily%3DArchitects%2BDaughter;" vertex="1" parent="1">
          <mxGeometry x="670" y="395" width="200" height="10" as="geometry" />
        </mxCell>
      </root>
    </mxGraphModel>
  </diagram>
</mxfile>
